<?xml version="1.0" standalone="no"?>
<!DOCTYPE svg PUBLIC "-//W3C//DTD SVG 20010904//EN"
    "http://www.w3.org/TR/2001/REC-SVG-20010904/DTD/svg10.dtd">
<svg version="1.0" xmlns="http://www.w3.org/2000/svg"
     width="387.000000pt" height="100.000000pt" viewBox="0 0 387.000000 100.000000"
     preserveAspectRatio="xMidYMid meet">

    <g transform="translate(0.000000,100.000000) scale(0.100000,-0.100000)"
       fill="#000000" stroke="none">
        <path d="M306 992 c-2 -4 -43 -154 -91 -332 -47 -179 -88 -333 -91 -342 -5
-16 4 -18 95 -18 l100 0 12 43 c7 23 22 80 33 127 l22 85 37 3 c20 2 37 0 37
-5 0 -4 -14 -59 -30 -122 -17 -62 -30 -118 -30 -122 0 -5 44 -9 98 -9 l98 0
88 333 c49 182 91 340 94 350 4 15 -5 17 -96 17 l-100 0 -20 -77 c-12 -43 -26
-99 -33 -125 -11 -47 -12 -48 -51 -48 -33 0 -38 3 -34 18 16 51 56 209 56 220
0 9 -26 12 -94 12 -52 0 -97 -4 -100 -8z"/>
        <path d="M935 981 c-55 -25 -102 -81 -119 -144 -60 -208 -114 -430 -110 -445
26 -81 51 -92 205 -92 104 0 129 3 166 21 74 36 96 73 142 244 22 84 44 160
47 169 6 15 -7 16 -122 14 l-128 -3 -22 -82 -22 -83 25 0 c22 0 24 -3 19 -25
-13 -51 -26 -74 -45 -80 -27 -8 -41 1 -41 28 1 47 79 301 96 314 12 9 56 13
140 13 l123 0 15 55 c9 30 19 68 22 85 l7 30 -179 0 c-151 0 -185 -3 -219 -19z"/>
        <path d="M1406 983 c-22 -74 -176 -663 -176 -672 0 -7 30 -11 95 -11 111 0 99
-14 141 156 l26 104 40 0 c33 0 39 -3 34 -16 -3 -9 -17 -60 -31 -114 -14 -54
-28 -105 -31 -114 -6 -15 4 -16 96 -14 l103 3 54 205 c30 113 72 269 93 348
l38 143 -101 -3 -100 -3 -19 -70 c-52 -191 -44 -175 -87 -175 l-38 0 27 98
c15 53 30 109 34 125 l6 27 -99 0 c-86 0 -100 -2 -105 -17z"/>
        <path d="M1946 938 c-9 -35 -19 -73 -22 -85 -6 -23 -6 -23 119 -23 138 0 155
-7 138 -53 l-10 -26 -138 -3 -138 -3 -52 -195 c-29 -107 -55 -207 -58 -223
l-7 -27 100 0 99 0 33 123 c18 67 35 130 38 140 5 21 45 23 61 3 9 -11 5 -42
-22 -140 l-34 -126 99 0 c114 0 99 -17 144 158 25 97 27 115 15 134 -11 18
-11 22 3 30 24 14 41 52 70 166 32 121 26 160 -28 193 -27 17 -51 19 -212 19
l-182 0 -16 -62z"/>
        <path d="M2595 981 c-22 -10 -55 -35 -74 -54 -30 -32 -40 -58 -98 -274 -57
-213 -63 -242 -53 -276 19 -64 52 -77 201 -77 112 0 131 2 170 23 74 39 92 78
159 327 33 123 60 233 60 243 0 31 -29 76 -60 92 -45 23 -252 21 -305 -4z
m134 -165 c9 -10 3 -45 -24 -147 -20 -74 -41 -146 -46 -161 -13 -32 -46 -46
-64 -27 -11 12 -7 39 27 164 22 83 47 158 56 168 18 21 36 22 51 3z"/>
        <path d="M3061 968 c-5 -18 -38 -136 -71 -263 -34 -126 -72 -270 -85 -318
l-24 -88 101 3 102 3 92 345 c51 190 93 346 94 348 0 1 -45 2 -99 2 l-99 0
-11 -32z"/>
        <path d="M3325 928 c-10 -40 -20 -79 -23 -85 -3 -10 25 -13 121 -13 92 0 127
-4 136 -13 13 -17 -61 -301 -86 -329 -17 -19 -63 -25 -63 -7 0 10 58 233 67
256 4 11 -15 13 -97 11 l-103 -3 -52 -195 c-28 -107 -55 -208 -59 -223 l-7
-28 194 3 194 3 41 29 c23 16 51 43 61 60 18 29 141 466 141 501 0 29 -30 74
-60 90 -23 12 -68 15 -208 15 l-178 0 -19 -72z"/>
        <path d="M8 176 c-13 -29 -5 -56 17 -56 16 0 47 58 39 72 -11 17 -45 7 -56
-16z"/>
        <path d="M79 173 c-21 -56 22 -76 46 -21 15 38 12 48 -16 48 -12 0 -23 -10
-30 -27z"/>
        <path d="M265 166 c-19 -45 -19 -73 0 -84 13 -7 14 -14 5 -36 -15 -41 -13 -48
17 -44 20 2 29 11 37 35 6 18 21 40 33 48 20 14 43 69 43 103 0 6 -11 12 -25
12 -19 0 -26 -7 -33 -32 -4 -17 -14 -34 -21 -36 -10 -3 -11 2 -6 19 12 39 11
43 -13 47 -18 3 -25 -4 -37 -32z"/>
        <path d="M570 188 c-19 -11 -29 -29 -44 -85 -10 -40 -16 -79 -13 -87 8 -20 86
-22 109 -4 19 16 59 151 49 167 -12 18 -73 23 -101 9z m30 -97 c-6 -23 -16
-41 -21 -41 -12 0 -7 28 12 77 16 39 22 13 9 -36z"/>
        <path d="M821 163 c-42 -158 -41 -163 23 -163 53 0 72 15 86 73 6 23 15 55 20
71 16 48 13 58 -17 54 -24 -3 -29 -10 -44 -71 -18 -70 -25 -85 -35 -74 -3 3 1
30 10 60 22 75 21 87 -9 87 -20 0 -26 -7 -34 -37z"/>
        <path d="M1240 181 c-15 -29 -13 -31 26 -31 l37 0 -7 -42 c-7 -42 -20 -67 -31
-57 -2 3 -1 20 4 37 9 30 8 32 -18 32 -24 0 -29 -6 -40 -42 -7 -24 -15 -51
-17 -60 -5 -16 2 -18 48 -18 30 0 62 6 71 13 10 7 26 45 36 85 17 64 17 74 4
87 -22 23 -100 20 -113 -4z"/>
        <path d="M1520 181 c-16 -30 -14 -31 49 -31 44 0 60 4 65 16 11 30 6 34 -49
34 -43 0 -56 -4 -65 -19z"/>
        <path d="M1830 193 c-67 -24 -81 -113 -18 -113 10 0 18 -6 18 -14 0 -10 -14
-16 -42 -18 -36 -2 -44 -7 -46 -25 -3 -21 0 -23 46 -23 44 0 54 4 76 31 38 45
30 89 -16 89 -10 0 -18 7 -18 15 0 9 9 15 24 15 22 0 36 16 36 41 0 10 -35 11
-60 2z"/>
        <path d="M2061 178 c-8 -22 -6 -23 42 -26 61 -4 77 2 77 28 0 18 -6 20 -55 20
-49 0 -57 -3 -64 -22z"/>
        <path d="M2330 181 c-15 -29 -13 -31 25 -31 24 0 35 -5 35 -15 0 -11 -11 -15
-40 -15 -38 0 -40 -2 -50 -42 -6 -24 -13 -51 -16 -60 -4 -14 1 -18 24 -18 26
0 31 4 36 35 10 52 31 58 22 6 -6 -42 -6 -42 21 -39 24 3 29 9 39 53 7 28 17
65 22 82 14 44 -5 63 -63 63 -34 0 -47 -5 -55 -19z"/>
        <path d="M2597 193 c-3 -4 -6 -48 -8 -98 l-4 -90 38 -3 38 -3 44 96 c25 53 45
98 45 101 0 2 -11 4 -26 4 -21 0 -29 -9 -50 -55 -14 -30 -28 -55 -30 -55 -3 0
-4 24 -2 53 3 47 1 52 -19 55 -11 2 -23 0 -26 -5z"/>
        <path d="M2890 181 c-16 -30 -14 -31 49 -31 44 0 60 4 65 16 11 30 6 34 -49
34 -43 0 -56 -4 -65 -19z"/>
        <path d="M3280 178 c-5 -13 -16 -51 -25 -85 -8 -34 -18 -69 -21 -78 -5 -11 1
-15 24 -15 28 0 30 2 52 88 29 111 29 106 3 110 -16 2 -26 -3 -33 -20z"/>
        <path d="M3481 178 c-8 -22 -6 -23 52 -26 41 -2 63 1 68 10 20 30 9 38 -51 38
-54 0 -62 -3 -69 -22z"/>
        <path d="M3748 174 c-25 -53 19 -74 46 -21 11 22 16 26 15 12 -2 -36 1 -45 16
-45 16 0 49 56 41 69 -3 5 -29 9 -57 9 -43 0 -52 -4 -61 -24z"/>
        <path d="M2094 122 l-51 -3 -11 -50 c-7 -28 -12 -55 -12 -60 0 -6 25 -9 58 -7
50 3 57 6 60 26 3 19 -1 22 -27 22 -23 0 -29 4 -25 15 4 8 17 15 29 15 15 0
26 8 30 21 8 25 10 25 -51 21z"/>
        <path d="M1490 78 c-6 -24 -13 -51 -16 -60 -5 -16 2 -18 54 -18 45 0 61 4 66
16 11 28 6 34 -25 34 -38 0 -35 24 3 28 16 2 28 11 31 23 5 17 0 19 -49 19
l-53 0 -11 -42z"/>
        <path d="M2861 78 c-7 -24 -15 -51 -17 -60 -5 -16 2 -18 54 -18 45 0 61 4 66
16 11 28 6 34 -25 34 -38 0 -35 24 3 28 16 2 28 11 31 23 5 17 0 19 -47 19
l-53 0 -12 -42z"/>
        <path d="M3490 78 c-6 -24 -14 -51 -17 -61 -4 -15 0 -18 23 -15 25 3 30 10 45
61 l17 57 -29 0 c-25 0 -30 -5 -39 -42z"/>
    </g>
</svg>
